<svg xmlns="http://www.w3.org/2000/svg" viewBox="0 0 64 64" role="img" aria-label="libRetro icon">
  <defs>
    <linearGradient id="bg" x1="12" y1="4" x2="52" y2="58" gradientUnits="userSpaceOnUse">
      <stop offset="0" stop-color="#0f172a" />
      <stop offset="1" stop-color="#1d2540" />
    </linearGradient>
    <linearGradient id="glow" x1="18" y1="16" x2="46" y2="48" gradientUnits="userSpaceOnUse">
      <stop offset="0" stop-color="#38bdf8" stop-opacity="0.3" />
      <stop offset="1" stop-color="#f472b6" stop-opacity="0.2" />
    </linearGradient>
  </defs>
  <rect width="64" height="64" rx="14" fill="url(#bg)" />
  <rect x="10" y="14" width="44" height="36" rx="9" fill="#0b1120" stroke="#1e293b" stroke-width="2" />
  <rect x="16" y="18" width="32" height="28" rx="7" fill="#111c32" stroke="#1a2844" stroke-width="1.5" />
  <rect x="17.5" y="19.5" width="29" height="25" rx="6" fill="url(#glow)" />
  <g stroke="#020617" stroke-width="1.5">
    <rect x="20" y="22" width="8" height="18" rx="3" fill="#34d399" />
    <rect x="28.5" y="22" width="8" height="18" rx="3" fill="#60a5fa" />
    <rect x="37" y="22" width="8" height="18" rx="3" fill="#fbbf24" />
  </g>
  <path fill="#f8fafc" d="M22.5 45h10.2c4 0 6.7 2.3 6.7 5.6 0 2.5-1.5 4.3-4 5l5.5 7.4h-6l-4.7-6.5h-3.2V63h-4.5V45zm10 8c1.6 0 2.5-.8 2.5-2.1 0-1.4-.9-2.1-2.5-2.1h-5.5V53h5.5z" />
</svg>
